<svg xmlns="http://www.w3.org/2000/svg" width="754" height="115" fill="none"><circle cx="46.5" cy="48" r="46" fill="#EF4C4C"/><path fill="#fff" d="M32.162 26h33v11h-33z"/><path fill="#fff" d="M67.162 26v35h-11V26z"/><path fill="#fff" d="M59.745 40.9 30.03 70.614l-7.53-7.529L52.217 33.37z"/><path fill="#000" d="M168.9 37.2c0 3.678-.868 7.148-2.603 10.41-1.735 3.261-4.511 5.933-8.328 8.015-3.817 2.013-8.709 3.02-14.678 3.02h-13.116V88h-11.868V15.651h24.984c5.552 0 10.237.972 14.054 2.915 3.886 1.874 6.766 4.442 8.64 7.703 1.943 3.262 2.915 6.906 2.915 10.93zm-25.609 11.763c4.511 0 7.877-1.006 10.098-3.019 2.221-2.082 3.331-4.997 3.331-8.744 0-7.912-4.476-11.868-13.429-11.868h-13.116v23.63h13.116zm55.561 39.974c-5.414 0-10.306-1.215-14.678-3.644-4.373-2.498-7.808-5.968-10.306-10.41-2.499-4.51-3.748-9.715-3.748-15.614 0-5.83 1.284-11 3.852-15.511 2.568-4.511 6.072-7.981 10.514-10.41 4.441-2.429 9.403-3.643 14.886-3.643 5.483 0 10.445 1.214 14.886 3.643 4.442 2.429 7.946 5.899 10.514 10.41 2.568 4.51 3.852 9.681 3.852 15.51 0 5.83-1.319 11-3.956 15.511-2.637 4.511-6.246 8.016-10.826 10.514-4.511 2.43-9.508 3.644-14.99 3.644zm0-10.306c3.053 0 5.898-.729 8.536-2.186 2.706-1.457 4.892-3.643 6.558-6.558 1.665-2.915 2.498-6.454 2.498-10.618 0-4.164-.798-7.669-2.394-10.514-1.596-2.915-3.713-5.101-6.35-6.559-2.637-1.457-5.483-2.186-8.536-2.186-3.054 0-5.899.73-8.536 2.187-2.568 1.457-4.615 3.643-6.142 6.558-1.527 2.845-2.29 6.35-2.29 10.514 0 6.176 1.561 10.965 4.684 14.365 3.193 3.332 7.183 4.997 11.972 4.997zm56.077 10.306c-4.511 0-8.571-.798-12.179-2.394-3.54-1.666-6.35-3.887-8.432-6.663-2.082-2.845-3.193-6.003-3.332-9.473h12.284c.208 2.43 1.353 4.477 3.435 6.142 2.152 1.596 4.824 2.394 8.016 2.394 3.331 0 5.899-.624 7.703-1.873 1.874-1.319 2.811-2.985 2.811-4.997 0-2.151-1.041-3.748-3.123-4.789-2.013-1.04-5.24-2.186-9.681-3.435-4.303-1.18-7.808-2.325-10.514-3.435-2.707-1.11-5.066-2.81-7.079-5.101-1.943-2.29-2.915-5.31-2.915-9.057 0-3.053.902-5.83 2.707-8.328 1.804-2.567 4.372-4.58 7.703-6.037 3.401-1.458 7.287-2.186 11.659-2.186 6.524 0 11.763 1.665 15.719 4.996 4.025 3.262 6.177 7.738 6.454 13.43h-11.867c-.208-2.569-1.249-4.616-3.123-6.143-1.874-1.526-4.407-2.29-7.599-2.29-3.123 0-5.517.59-7.183 1.77-1.666 1.18-2.498 2.741-2.498 4.684 0 1.527.555 2.81 1.665 3.852 1.111 1.04 2.464 1.874 4.06 2.498 1.596.555 3.956 1.284 7.079 2.186 4.164 1.11 7.564 2.256 10.202 3.436a18.468 18.468 0 0 1 6.974 4.996c1.943 2.221 2.95 5.17 3.019 8.849 0 3.262-.902 6.176-2.707 8.744-1.804 2.568-4.372 4.58-7.703 6.038-3.262 1.457-7.113 2.186-11.555 2.186zm42.387-48.614v31.75c0 2.151.486 3.713 1.458 4.684 1.041.902 2.776 1.354 5.204 1.354h7.287V88h-9.369c-5.343 0-9.438-1.25-12.283-3.748-2.846-2.498-4.268-6.558-4.268-12.18v-31.75h-6.767v-9.68h6.767V16.38h11.971v14.262h13.949v9.68h-13.949zm71.211 17.592c0 2.152-.139 4.095-.416 5.83h-43.826c.347 4.58 2.047 8.259 5.101 11.034 3.054 2.776 6.801 4.164 11.243 4.164 6.384 0 10.895-2.671 13.532-8.015h12.805c-1.735 5.274-4.893 9.612-9.473 13.012-4.511 3.331-10.133 4.997-16.864 4.997-5.483 0-10.41-1.215-14.782-3.644-4.303-2.498-7.704-5.968-10.202-10.41-2.429-4.51-3.644-9.715-3.644-15.614 0-5.9 1.18-11.07 3.54-15.511 2.429-4.511 5.795-7.981 10.097-10.41 4.373-2.429 9.369-3.643 14.991-3.643 5.413 0 10.236 1.18 14.469 3.539 4.234 2.36 7.53 5.69 9.89 9.993 2.359 4.234 3.539 9.127 3.539 14.678zm-12.388-3.747c-.069-4.372-1.631-7.877-4.684-10.514-3.054-2.637-6.836-3.956-11.347-3.956-4.094 0-7.599 1.319-10.514 3.956-2.915 2.568-4.65 6.072-5.205 10.514h31.75zm29.688-15.199c1.735-2.914 4.025-5.17 6.871-6.766 2.914-1.666 6.35-2.498 10.305-2.498v12.283h-3.018c-4.65 0-8.19 1.18-10.619 3.54-2.359 2.36-3.539 6.454-3.539 12.283V88H373.96V30.642h11.867v8.327zm27.877-15.927c-2.152 0-3.956-.728-5.413-2.186-1.458-1.457-2.187-3.262-2.187-5.413 0-2.151.729-3.956 2.187-5.413 1.457-1.457 3.261-2.186 5.413-2.186 2.082 0 3.851.728 5.309 2.186 1.457 1.457 2.186 3.262 2.186 5.413 0 2.151-.729 3.956-2.186 5.413-1.458 1.458-3.227 2.186-5.309 2.186zm5.829 7.6V88h-11.867V30.642h11.867zm23.18 9.68v31.75c0 2.152.486 3.714 1.457 4.685 1.041.902 2.776 1.354 5.205 1.354h7.287V88h-9.369c-5.343 0-9.438-1.25-12.283-3.748-2.846-2.498-4.268-6.558-4.268-12.18v-31.75h-6.767v-9.68h6.767V16.38h11.971v14.262h13.949v9.68h-13.949zm70.274-9.68-35.185 84.32h-12.284l11.659-27.899-22.589-56.422h13.22l16.136 43.722 16.76-43.721h12.283zm35.373 47.78h24.463V88h-36.331V15.651h11.868v62.772zm24.186-19.361c0-5.76 1.179-10.861 3.539-15.303 2.429-4.442 5.691-7.877 9.785-10.306 4.164-2.498 8.745-3.747 13.741-3.747 4.511 0 8.432.902 11.764 2.706 3.4 1.735 6.107 3.921 8.119 6.558v-8.328h11.972V88h-11.972v-8.536c-2.012 2.707-4.754 4.962-8.224 6.766-3.47 1.805-7.425 2.707-11.867 2.707-4.927 0-9.438-1.25-13.533-3.748-4.094-2.567-7.356-6.107-9.785-10.618-2.36-4.58-3.539-9.75-3.539-15.51zm46.948.208c0-3.956-.833-7.391-2.498-10.306-1.596-2.915-3.713-5.136-6.35-6.662a16.75 16.75 0 0 0-8.536-2.29c-3.054 0-5.899.763-8.536 2.29-2.638 1.457-4.789 3.643-6.455 6.558-1.596 2.845-2.394 6.246-2.394 10.201 0 3.956.798 7.426 2.394 10.41 1.666 2.985 3.817 5.275 6.455 6.87 2.706 1.528 5.552 2.291 8.536 2.291a16.75 16.75 0 0 0 8.536-2.29c2.637-1.527 4.754-3.748 6.35-6.662 1.665-2.985 2.498-6.455 2.498-10.41zm33.18-20.091c2.013-2.776 4.754-5.032 8.224-6.767 3.539-1.804 7.46-2.706 11.763-2.706 5.066 0 9.647 1.214 13.741 3.643 4.095 2.429 7.322 5.899 9.681 10.41 2.36 4.441 3.54 9.542 3.54 15.302s-1.18 10.93-3.54 15.511c-2.359 4.511-5.621 8.05-9.785 10.618-4.094 2.499-8.64 3.748-13.637 3.748-4.441 0-8.397-.868-11.867-2.603-3.401-1.735-6.107-3.955-8.12-6.662V88h-11.867V10.967h11.867v28.21zm34.873 19.883c0-3.956-.832-7.357-2.498-10.202-1.596-2.915-3.748-5.101-6.454-6.558a16.75 16.75 0 0 0-8.536-2.29c-2.984 0-5.83.763-8.536 2.29-2.638 1.526-4.789 3.747-6.455 6.662-1.596 2.915-2.394 6.35-2.394 10.306 0 3.955.798 7.425 2.394 10.41 1.666 2.914 3.817 5.135 6.455 6.662 2.706 1.527 5.552 2.29 8.536 2.29a16.75 16.75 0 0 0 8.536-2.29c2.706-1.596 4.858-3.886 6.454-6.87 1.666-2.985 2.498-6.455 2.498-10.41zm38.385 29.876c-4.511 0-8.571-.798-12.179-2.394-3.54-1.666-6.35-3.887-8.432-6.663-2.082-2.845-3.193-6.003-3.332-9.473h12.284c.208 2.43 1.353 4.477 3.435 6.142 2.152 1.596 4.824 2.394 8.016 2.394 3.331 0 5.899-.624 7.703-1.873 1.874-1.319 2.811-2.985 2.811-4.997 0-2.151-1.041-3.748-3.123-4.789-2.013-1.04-5.24-2.186-9.681-3.435-4.303-1.18-7.808-2.325-10.514-3.435-2.707-1.11-5.066-2.81-7.079-5.101-1.943-2.29-2.915-5.31-2.915-9.057 0-3.053.903-5.83 2.707-8.328 1.804-2.567 4.372-4.58 7.703-6.037 3.401-1.458 7.287-2.186 11.659-2.186 6.524 0 11.763 1.665 15.719 4.996 4.025 3.262 6.177 7.738 6.454 13.43h-11.867c-.208-2.569-1.249-4.616-3.123-6.143-1.874-1.526-4.407-2.29-7.599-2.29-3.123 0-5.517.59-7.183 1.77-1.665 1.18-2.498 2.741-2.498 4.684 0 1.527.555 2.81 1.665 3.852 1.111 1.04 2.464 1.874 4.06 2.498 1.596.555 3.956 1.284 7.079 2.186 4.164 1.11 7.564 2.256 10.202 3.436a18.468 18.468 0 0 1 6.974 4.996c1.943 2.221 2.95 5.17 3.019 8.849 0 3.262-.902 6.176-2.706 8.744-1.805 2.568-4.373 4.58-7.704 6.038-3.262 1.457-7.113 2.186-11.555 2.186z"/></svg>